<?xml version="1.0"?>
<svg xmlns="http://www.w3.org/2000/svg" height="512px" viewBox="-65 1 511 511.99999" width="512px" class=""><g><path d="m381.933594 190.71875c0 49.929688-30.515625 117.457031-90.695313 200.71875-43.984375 60.839844-87.265625 107.007812-89.089843 108.9375l-10.929688 11.625-10.933594-11.625c-1.824218-1.929688-45.105468-48.097656-89.085937-108.9375-60.183594-83.261719-90.699219-150.789062-90.699219-200.71875 0-105.167969 85.550781-190.71875 190.71875-190.71875 105.164062 0 190.714844 85.550781 190.714844 190.71875zm0 0" fill="#ff4f19" data-original="#FF4F19" class="" style="fill:#2B5797" data-old_color="#2b5797"/><path d="m381.933594 190.71875c0 49.929688-30.515625 117.457031-90.695313 200.71875-43.984375 60.839844-87.265625 107.007812-89.089843 108.9375l-10.929688 11.625v-512c105.164062 0 190.714844 85.550781 190.714844 190.71875zm0 0" fill="#e70020" data-original="#E70020" class="" style="fill:#2B5797" data-old_color="#2b5797"/><path d="m309.859375 187.722656c0 65.417969-53.222656 118.640625-118.640625 118.640625s-118.644531-53.222656-118.644531-118.640625c0-65.417968 53.226562-118.640625 118.644531-118.640625s118.640625 53.222657 118.640625 118.640625zm0 0" fill="#fff4ca" data-original="#FFF4CA"/><path d="m247.222656 172.707031v30.035157h-40.988281v40.988281h-30.035156v-40.988281h-40.988281v-30.035157h40.988281v-40.988281h30.035156v40.988281zm0 0" fill="#ff4f19" data-original="#FF4F19" class="" style="fill:#2B5797" data-old_color="#2b5797"/><path d="m309.859375 187.722656c0 65.417969-53.222656 118.640625-118.640625 118.640625v-237.28125c65.417969 0 118.640625 53.222657 118.640625 118.640625zm0 0" fill="#ffdaa8" data-original="#FFDAA8" class="active-path" style="fill:#FFFFFF" data-old_color="#FFDAA8"/><path d="m247.222656 172.707031v30.035157h-40.988281v40.988281h-15.015625v-112.011719h15.015625v40.988281zm0 0" fill="#e70020" data-original="#E70020" class="" style="fill:#2B5797" data-old_color="#2b5797"/></g> </svg>
